HIERARCHY
ROOT Hips
{
	OFFSET 0.00 0.00 0.00
	CHANNELS 6 Xposition Yposition Zposition Xrotation Yrotation Zrotation
	JOINT Spine
	{
		OFFSET 0.00000 1.72418 2.58627
		CHANNELS 3 Xrotation Yrotation Zrotation
		JOINT Spine1
		{
			OFFSET 0.00000 0.59880 3.39597
			CHANNELS 3 Xrotation Yrotation Zrotation
			JOINT Spine2
			{
				OFFSET 0.00000 0.30055 3.43524
				CHANNELS 3 Xrotation Yrotation Zrotation
				JOINT Spine3
				{
					OFFSET 0.00000 0.00000 3.44836
					CHANNELS 3 Xrotation Yrotation Zrotation
					JOINT Neck
					{
						OFFSET 0.00000 -1.29313 9.05195
						CHANNELS 3 Xrotation Yrotation Zrotation
						JOINT Head
						{
							OFFSET 0.00000 -0.82335 4.66946
							CHANNELS 3 Xrotation Yrotation Zrotation
							End Site
							{
								OFFSET 0.00000 0.00001 5.58203
							}
						}
					}
					JOINT RightShoulder
					{
						OFFSET -1.18828 -1.98046 6.41673
						CHANNELS 3 Xrotation Yrotation Zrotation
						JOINT RightArm
						{
							OFFSET -5.90180 0.00000 0.00000
							CHANNELS 3 Xrotation Yrotation Zrotation
							JOINT RightForeArm
							{
								OFFSET -11.45951 0.00000 0.00000
								CHANNELS 3 Xrotation Yrotation Zrotation
								JOINT RightHand
								{
									OFFSET -10.63451 0.00000 0.00000
									CHANNELS 3 Xrotation Yrotation Zrotation
									JOINT RightHandEnd
									{
										OFFSET -2.86944 0.00000 0.00000
										CHANNELS 3 Xrotation Yrotation Zrotation
										End Site
										{
											OFFSET -2.86944 0.00000 0.00000
										}
									}
									JOINT RightHandThumb1
									{
										OFFSET -1.14778 -1.91296 -0.76518
										CHANNELS 3 Yrotation Xrotation Zrotation
										End Site
										{
											OFFSET -2.77167 -0.74267 0.00000
										}
									}
								}
							}
						}
					}
					JOINT LeftShoulder
					{
						OFFSET 1.18828 -1.98046 6.41673
						CHANNELS 3 Xrotation Yrotation Zrotation
						JOINT LeftArm
						{
							OFFSET 5.90180 0.00000 0.00000
							CHANNELS 3 Xrotation Yrotation Zrotation
							JOINT LeftForeArm
							{
								OFFSET 11.45951 0.00000 0.00000
								CHANNELS 3 Xrotation Yrotation Zrotation
								JOINT LeftHand
								{
									OFFSET 10.63451 0.00000 0.00000
									CHANNELS 3 Xrotation Yrotation Zrotation
									JOINT LeftHandEnd
									{
										OFFSET 2.86944 0.00000 0.00000
										CHANNELS 3 Xrotation Yrotation Zrotation
										End Site
										{
											OFFSET 2.86944 0.00000 0.00000
										}
									}
									JOINT LeftHandThumb1
									{
										OFFSET 1.14778 -1.91296 -0.76518
										CHANNELS 3 Yrotation Xrotation Zrotation
										End Site
										{
											OFFSET 2.77167 -0.74267 0.00000
										}
									}
								}
							}
						}
					}
				}
			}
		}
	}
	JOINT RightUpLeg
	{
		OFFSET -3.52524 0.00000 -1.02984
		CHANNELS 3 Xrotation Yrotation Zrotation
		JOINT RightLeg
		{
			OFFSET 0.00001 0.00000 -17.80965
			CHANNELS 3 Xrotation Yrotation Zrotation
			JOINT RightFoot
			{
				OFFSET 0.00001 0.00000 -17.00908
				CHANNELS 3 Xrotation Yrotation Zrotation
				JOINT RightToeBase
				{
					OFFSET 0.00000 -5.55853 -2.02314
					CHANNELS 3 Xrotation Yrotation Zrotation
					End Site
					{
						OFFSET 0.00000 -2.85188 -0.00000
					}
				}
			}
		}
	}
	JOINT LeftUpLeg
	{
		OFFSET 3.52524 0.00000 -1.02984
		CHANNELS 3 Xrotation Yrotation Zrotation
		JOINT LeftLeg
		{
			OFFSET 0.00001 0.00000 -17.80965
			CHANNELS 3 Xrotation Yrotation Zrotation
			JOINT LeftFoot
			{
				OFFSET 0.00001 0.00000 -17.00908
				CHANNELS 3 Xrotation Yrotation Zrotation
				JOINT LeftToeBase
				{
					OFFSET 0.00000 -5.55853 -2.02314
					CHANNELS 3 Xrotation Yrotation Zrotation
					End Site
					{
						OFFSET 0.00000 -2.85188 -0.00000
					}
				}
			}
		}
	}
}
MOTION
Frames: 9
Frame Time: 0.008342
 2.2243 -99.0383 36.4093 -3.1097 1.9251 -179.3861 -1.4842 -0.2616 -0.2995 -0.7675 0.1716 0.0227 4.9998 0.4880 0.2110 1.0783 0.0310 0.0004 -3.0129 1.3564 -0.0220 -3.3304 0.5323 -1.3563 14.7907 -15.7939 2.8005 14.7984 -46.4672 24.8957 0.0000 0.0000 26.5015 -3.2227 12.7469 2.1590 -0.0000 -0.0000 -0.0000 -0.0000 -0.0000 0.0000 17.9815 13.4047 -0.9708 21.0486 50.7333 -30.1771 -0.0000 -0.0000 -28.1714 2.6246 -15.1815 -3.3920 0.0000 0.0000 0.0000 0.0000 0.0000 -0.0000 -6.5684 1.4650 -22.6276 18.1834 0.0000 0.0000 -16.3957 1.6305 -2.0218 -1.5053 0.0000 -0.0000 -3.7375 -3.0409 13.3132 12.9851 0.0000 0.0000 -11.6746 5.7966 3.0023 1.0483 0.0000 0.0000
 2.2485 -99.0224 36.4066 -3.1160 1.9394 -179.3434 -1.5030 -0.2607 -0.2995 -0.7753 0.1754 0.0226 5.0194 0.4681 0.1974 1.0791 0.0287 0.0038 -3.0342 1.3456 -0.0299 -3.4016 0.5372 -1.3624 14.8118 -15.8689 2.7577 16.1755 -46.7229 26.2790 0.0000 0.0000 25.8925 -3.6525 12.7376 2.2730 0.0000 0.0000 -0.0000 0.0000 0.0000 0.0000 18.1740 13.4167 -0.9660 22.5337 50.7941 -32.0129 -0.0000 -0.0000 -27.1979 1.4494 -15.6208 -3.5123 0.0000 -0.0000 -0.0000 -0.0000 0.0000 -0.0000 -6.5546 1.4363 -22.6039 18.1991 0.0000 0.0000 -16.4395 1.6849 -2.0809 -1.4882 0.0000 -0.0000 -3.7126 -3.0628 13.3126 12.9589 0.0000 0.0000 -11.6605 5.8345 2.9735 1.0438 0.0000 0.0000
 2.2726 -99.0068 36.4037 -3.1213 1.9546 -179.2888 -1.5227 -0.2583 -0.2996 -0.7830 0.1799 0.0227 5.0423 0.4463 0.1822 1.0797 0.0275 0.0074 -3.0531 1.3316 -0.0408 -3.4814 0.5424 -1.3702 14.8441 -15.9489 2.7096 17.4758 -46.9400 27.5983 0.0000 0.0000 25.3282 -4.0910 12.7370 2.3742 -0.0000 -0.0000 0.0000 -0.0000 0.0000 0.0000 18.3653 13.4270 -0.9632 23.9966 50.7590 -33.8127 -0.0000 -0.0000 -26.2759 0.2613 -15.9890 -3.6178 -0.0000 -0.0000 -0.0000 -0.0000 0.0000 -0.0000 -6.5394 1.4090 -22.5835 18.2154 0.0000 0.0000 -16.4852 1.7396 -2.1470 -1.4731 0.0000 -0.0000 -3.6895 -3.0834 13.3038 12.9351 0.0000 0.0000 -11.6446 5.8701 2.9439 1.0366 0.0000 0.0000
 2.2964 -98.9914 36.4007 -3.1252 1.9698 -179.2230 -1.5437 -0.2553 -0.3001 -0.7913 0.1850 0.0227 5.0688 0.4229 0.1650 1.0825 0.0276 0.0108 -3.0719 1.3147 -0.0550 -3.5683 0.5478 -1.3770 14.8883 -16.0327 2.6607 18.7007 -47.1192 28.8543 0.0000 0.0000 24.8059 -4.5430 12.7443 2.4623 0.0000 -0.0000 0.0000 -0.0000 0.0000 0.0000 18.5535 13.4348 -0.9662 25.4252 50.6319 -35.5560 -0.0000 -0.0000 -25.4168 -0.9173 -16.2693 -3.7016 0.0000 0.0000 0.0000 -0.0000 -0.0000 0.0000 -6.5217 1.3824 -22.5679 18.2313 0.0000 0.0000 -16.5324 1.7941 -2.2184 -1.4613 0.0000 -0.0000 -3.6678 -3.1035 13.2871 12.9138 0.0000 0.0000 -11.6297 5.9036 2.9135 1.0294 0.0000 0.0000
 2.3201 -98.9763 36.3976 -3.1272 1.9841 -179.1469 -1.5658 -0.2529 -0.3007 -0.7996 0.1904 0.0226 5.0999 0.3980 0.1446 1.0856 0.0291 0.0138 -3.0893 1.2956 -0.0709 -3.6627 0.5525 -1.3815 14.9414 -16.1202 2.6126 19.8598 -47.2579 30.0508 0.0000 0.0000 24.3228 -5.0123 12.7553 2.5371 -0.0000 -0.0000 -0.0000 -0.0000 -0.0000 0.0000 18.7322 13.4415 -0.9771 26.8117 50.4173 -37.2220 -0.0000 -0.0000 -24.6289 -2.0647 -16.4516 -3.7663 0.0000 -0.0000 -0.0000 -0.0000 0.0000 0.0000 -6.5008 1.3553 -22.5576 18.2455 0.0000 0.0000 -16.5803 1.8485 -2.2937 -1.4537 0.0000 -0.0000 -3.6471 -3.1243 13.2628 12.8955 0.0000 0.0000 -11.6186 5.9355 2.8825 1.0250 0.0000 0.0000
 2.3435 -98.9613 36.3943 -3.1259 1.9965 -179.0614 -1.5870 -0.2520 -0.3021 -0.8084 0.1962 0.0223 5.1338 0.3715 0.1199 1.0917 0.0323 0.0159 -3.1076 1.2738 -0.0879 -3.7618 0.5570 -1.3813 15.0013 -16.2099 2.5668 20.9684 -47.3506 31.2001 0.0000 0.0000 23.8744 -5.5055 12.7689 2.5986 -0.0000 -0.0000 0.0000 -0.0000 -0.0000 -0.0000 18.9090 13.4472 -0.9919 28.1610 50.1050 -38.8227 -0.0000 -0.0000 -23.9120 -3.1647 -16.5402 -3.8114 -0.0000 -0.0000 -0.0000 -0.0000 -0.0000 0.0000 -6.4746 1.3266 -22.5533 18.2571 0.0000 0.0000 -16.6283 1.9026 -2.3716 -1.4501 0.0000 -0.0000 -3.6256 -3.1468 13.2321 12.8800 0.0000 0.0000 -11.6136 5.9669 2.8498 1.0264 0.0000 0.0000
 2.3668 -98.9465 36.3910 -3.1181 2.0060 -178.9679 -1.6067 -0.2531 -0.3041 -0.8170 0.2025 0.0222 5.1749 0.3434 0.0903 1.0970 0.0351 0.0156 -3.1230 1.2526 -0.1034 -3.8636 0.5595 -1.3758 15.0714 -16.2952 2.5319 22.0345 -47.3969 32.3069 0.0000 0.0000 23.4585 -6.0238 12.7841 2.6462 0.0000 0.0000 -0.0000 0.0000 -0.0000 -0.0000 19.0749 13.4502 -1.0227 29.4479 49.7208 -40.3121 -0.0000 -0.0000 -23.2797 -4.1861 -16.5331 -3.8399 0.0000 -0.0000 -0.0000 0.0000 0.0000 0.0000 -6.4390 1.2952 -22.5557 18.2649 0.0000 0.0000 -16.6758 1.9565 -2.4502 -1.4502 0.0000 -0.0000 -3.5996 -3.1721 13.1966 12.8672 0.0000 0.0000 -11.6163 5.9989 2.8139 1.0355 0.0000 0.0000
 2.3896 -98.9323 36.3875 -3.1138 2.0148 -178.8686 -1.6310 -0.2545 -0.3055 -0.8261 0.2077 0.0207 5.2174 0.3151 0.0547 1.1049 0.0398 0.0158 -3.1381 1.2297 -0.1193 -3.9656 0.5605 -1.3624 15.1387 -16.3811 2.5017 23.0800 -47.3862 33.3815 0.0000 0.0000 23.0727 -6.5629 12.7931 2.6806 0.0000 -0.0000 -0.0000 0.0000 0.0000 0.0000 19.2179 13.4506 -1.0672 30.6669 49.2786 -41.6711 -0.0000 -0.0000 -22.7417 -5.0938 -16.4340 -3.8455 0.0000 -0.0000 -0.0000 -0.0000 0.0000 0.0000 -6.4077 1.2635 -22.5587 18.2730 0.0000 0.0000 -16.7239 2.0120 -2.5324 -1.4527 0.0000 -0.0000 -3.5809 -3.1979 13.1575 12.8581 0.0000 0.0000 -11.6262 6.0322 2.7755 1.0531 0.0000 0.0000
 2.4123 -98.9182 36.3839 -3.1013 2.0200 -178.7646 -1.6494 -0.2588 -0.3080 -0.8349 0.2137 0.0192 5.2622 0.2848 0.0126 1.1135 0.0450 0.0134 -3.1522 1.2069 -0.1322 -4.0630 0.5594 -1.3412 15.2074 -16.4593 2.4793 24.1216 -47.3139 34.4433 0.0000 0.0000 22.7115 -7.1200 12.7961 2.7041 -0.0000 0.0000 -0.0000 -0.0000 0.0000 -0.0000 19.3632 13.4487 -1.1146 31.8365 48.7512 -42.9502 -0.0000 -0.0000 -22.2803 -5.8945 -16.2707 -3.8428 0.0000 0.0000 -0.0000 -0.0000 0.0000 -0.0000 -6.3656 1.2279 -22.5661 18.2764 0.0000 0.0000 -16.7707 2.0682 -2.6144 -1.4561 0.0000 -0.0000 -3.5560 -3.2278 13.1174 12.8516 0.0000 0.0000 -11.6433 6.0679 2.7310 1.0794 0.0000 0.0000
